<svg width="81" height="81" viewBox="0 0 81 81" fill="none" xmlns="http://www.w3.org/2000/svg">
<path d="M8.1041 40.4641L39.5989 10.5519L72.8346 42.0467C72.9929 42.205 73.3094 42.3633 73.626 42.3633C73.9425 42.3633 74.259 42.205 74.4173 42.0467C74.8921 41.5719 74.8921 40.7806 74.4173 40.3058L40.3902 8.01967C39.9154 7.54488 39.2824 7.54488 38.8076 8.01967L6.36318 38.7231C5.88838 39.1979 5.88838 39.9893 6.36318 40.4641C6.83797 40.7806 7.6293 40.9389 8.1041 40.4641Z" fill="#CE005B"/>
<path d="M40.3902 15.6164C39.9154 15.1416 39.2824 15.1416 38.8076 15.6164L6.36318 46.3198C5.88838 46.7946 5.88838 47.586 6.36318 48.0607C6.83797 48.5355 7.6293 48.5355 8.1041 48.0607L15.3843 41.2553V69.11C15.3843 71.3258 17.2835 73.2249 19.6575 73.2249H61.4395C63.8135 73.2249 65.7127 71.3258 65.7127 69.11V42.838L72.9929 49.6434C73.1512 49.8017 73.4677 49.9599 73.7842 49.9599C74.1007 49.9599 74.4173 49.8017 74.5755 49.6434C75.0503 49.1686 75.0503 48.3773 74.5755 47.9025L40.3902 15.6164ZM47.987 70.6927H32.9518V42.6797H47.987V70.6927ZM63.1804 68.9518C63.1804 69.9014 62.3891 70.6927 61.2813 70.6927H50.3609V41.5719C50.3609 40.9388 49.8861 40.3057 49.0948 40.3057H31.6856C31.0526 40.3057 30.4195 40.7805 30.4195 41.5719V70.851H19.4992C18.3913 70.851 17.6 70.0596 17.6 69.11V39.0396L39.5989 18.1486L63.1804 40.6223V68.9518Z" fill="#CE005B"/>
</svg>
