<svg width="81" height="81" viewBox="0 0 81 81" fill="none" xmlns="http://www.w3.org/2000/svg">
<path d="M39.2768 26.1342C39.8882 26.1342 40.4995 25.6757 40.4995 24.9116V20.3266C40.4995 19.7153 40.041 19.104 39.2768 19.104C38.6655 19.104 38.0542 19.5625 38.0542 20.3266V24.9116C38.207 25.6757 38.6655 26.1342 39.2768 26.1342Z" fill="#CE005B"/>
<path d="M39.2768 60.6739C39.8882 60.6739 40.4995 60.2154 40.4995 59.4513V29.6494C40.4995 29.0381 40.041 28.4268 39.2768 28.4268C38.6655 28.4268 38.0542 28.8852 38.0542 29.6494V59.4513C38.207 60.0626 38.6655 60.6739 39.2768 60.6739Z" fill="#CE005B"/>
<path d="M74.4274 16.8115C73.816 16.8115 73.2047 17.27 73.2047 18.0342V66.4813H43.7085C43.0972 66.4813 42.6387 66.787 42.1802 67.2455L41.2632 68.4681H37.2896L36.3726 67.2455C36.067 66.787 35.4557 66.4813 34.8443 66.4813H5.34812V18.0342C5.34812 17.4228 4.88963 16.8115 4.12548 16.8115C3.51415 16.8115 3.05566 17.4228 3.05566 18.0342V67.704C3.05566 68.3153 3.51415 68.7738 4.12548 68.7738H34.5387L35.7613 70.3021C35.9142 70.6077 36.3726 70.7606 36.6783 70.7606H41.5689C41.8745 70.7606 42.1802 70.6077 42.4859 70.3021L43.7085 68.7738H74.1217C74.733 68.7738 75.3443 68.3153 75.3443 67.5511V18.0342C75.65 17.4228 75.0387 16.8115 74.4274 16.8115Z" fill="#CE005B"/>
<path d="M9.93259 14.519H34.8439C36.2194 14.519 37.5949 15.2832 38.359 16.353C38.5118 16.6586 38.9703 16.8115 39.276 16.8115C39.7345 16.8115 40.0401 16.6586 40.193 16.353C40.9571 15.1303 42.3326 14.519 43.7081 14.519H68.6194V61.8964H43.7081C42.0269 61.8964 40.4986 62.5077 39.276 63.5775C38.0533 62.5077 36.525 61.8964 34.8439 61.8964H9.93259V14.519ZM8.86278 64.1888H34.9967C36.3722 64.1888 37.7477 64.953 38.5118 66.0228C38.6647 66.3284 39.1232 66.4813 39.4288 66.4813C39.8873 66.4813 40.193 66.3284 40.3458 66.0228C41.11 64.8001 42.4854 64.1888 43.8609 64.1888H69.9949C70.6062 64.1888 71.2175 63.7303 71.2175 62.9662V13.4492C71.2175 12.8379 70.759 12.2266 69.9949 12.2266H43.7081C42.0269 12.2266 40.4986 12.8379 39.276 13.9077C38.2062 12.8379 36.525 12.2266 34.8439 12.2266H8.86278C8.25146 12.2266 7.64014 12.6851 7.64014 13.4492V63.119C7.64014 63.7303 8.25146 64.1888 8.86278 64.1888Z" fill="#CE005B"/>
<path d="M33.1633 18.3398H14.9765C14.3652 18.3398 13.7539 18.7983 13.7539 19.5625C13.7539 20.3266 14.2124 20.7851 14.9765 20.7851H33.1633C33.7747 20.7851 34.386 20.3266 34.386 19.5625C34.386 18.7983 33.7747 18.3398 33.1633 18.3398Z" fill="#CE005B"/>
<path d="M33.1633 23.0776H14.9765C14.3652 23.0776 13.7539 23.5361 13.7539 24.3003C13.7539 25.0644 14.2124 25.5229 14.9765 25.5229H33.1633C33.7747 25.5229 34.386 25.0644 34.386 24.3003C34.386 23.5361 33.7747 23.0776 33.1633 23.0776Z" fill="#CE005B"/>
<path d="M33.1633 27.6626H14.9765C14.3652 27.6626 13.7539 28.1211 13.7539 28.8852C13.7539 29.6494 14.2124 30.1079 14.9765 30.1079H33.1633C33.7747 30.1079 34.386 29.6494 34.386 28.8852C34.386 28.1211 33.7747 27.6626 33.1633 27.6626Z" fill="#CE005B"/>
<path d="M33.1633 32.2476H14.9765C14.3652 32.2476 13.7539 32.706 13.7539 33.4702C13.7539 34.2344 14.2124 34.6928 14.9765 34.6928H33.1633C33.7747 34.6928 34.386 34.2344 34.386 33.4702C34.386 32.706 33.7747 32.2476 33.1633 32.2476Z" fill="#CE005B"/>
<path d="M33.1633 36.9849H14.9765C14.3652 36.9849 13.7539 37.4434 13.7539 38.2075C13.7539 38.9717 14.2124 39.4301 14.9765 39.4301H33.1633C33.7747 39.4301 34.386 38.9717 34.386 38.2075C34.386 37.4434 33.7747 36.9849 33.1633 36.9849Z" fill="#CE005B"/>
<path d="M14.9765 43.8628H23.9935C24.6048 43.8628 25.2162 43.4043 25.2162 42.6401C25.2162 42.0288 24.7577 41.4175 23.9935 41.4175H14.9765C14.3652 41.4175 13.7539 41.876 13.7539 42.6401C13.9067 43.4043 14.3652 43.8628 14.9765 43.8628Z" fill="#CE005B"/>
<path d="M44.0139 39.4301H62.2007C62.812 39.4301 63.4233 38.9717 63.4233 38.2075C63.4233 37.5962 62.9648 36.9849 62.2007 36.9849H44.0139C43.4026 36.9849 42.7913 37.4434 42.7913 38.2075C42.7913 38.9717 43.2497 39.4301 44.0139 39.4301Z" fill="#CE005B"/>
<path d="M44.0139 44.1684H62.2007C62.812 44.1684 63.4233 43.7099 63.4233 42.9458C63.4233 42.3345 62.9648 41.7231 62.2007 41.7231H44.0139C43.4026 41.7231 42.7913 42.1816 42.7913 42.9458C42.7913 43.5571 43.2497 44.1684 44.0139 44.1684Z" fill="#CE005B"/>
<path d="M44.0139 48.7529H62.2007C62.812 48.7529 63.4233 48.2944 63.4233 47.5303C63.4233 46.9189 62.9648 46.3076 62.2007 46.3076H44.0139C43.4026 46.3076 42.7913 46.7661 42.7913 47.5303C42.7913 48.2944 43.2497 48.7529 44.0139 48.7529Z" fill="#CE005B"/>
<path d="M44.0139 53.3379H62.2007C62.812 53.3379 63.4233 52.8794 63.4233 52.1152C63.4233 51.5039 62.9648 50.8926 62.2007 50.8926H44.0139C43.4026 50.8926 42.7913 51.3511 42.7913 52.1152C42.7913 52.8794 43.2497 53.3379 44.0139 53.3379Z" fill="#CE005B"/>
<path d="M44.0139 58.0757H53.0309C53.6422 58.0757 54.2535 57.6172 54.2535 56.853C54.2535 56.2417 53.795 55.6304 53.0309 55.6304H44.0139C43.4026 55.6304 42.7913 56.0889 42.7913 56.853C42.7913 57.4643 43.2497 58.0757 44.0139 58.0757Z" fill="#CE005B"/>
</svg>
