<svg width="81" height="74" viewBox="0 0 81 74" fill="none" xmlns="http://www.w3.org/2000/svg">
<path d="M75.6572 49.2506C70.3685 33.0514 61.2842 21.0464 49.3897 14.5416C48.7664 14.2 48.0123 14.2151 47.3989 14.5768C46.7856 14.9384 46.4136 15.5964 46.4136 16.3047V41.7462L41.8086 39.3954V1.75805C41.8086 0.788612 41.0194 0 40.0491 0C39.0788 0 38.2896 0.788612 38.2896 1.75805V39.3954L33.6846 41.7462V16.3047C33.6846 15.5964 33.3075 14.9384 32.6992 14.5768C32.0859 14.2151 31.3318 14.2 30.7084 14.5416C18.8139 21.0514 9.72967 33.0514 4.44099 49.2506C0.479511 61.3761 0.0170028 71.4573 0.00192098 71.8792C-0.0282426 72.5673 0.298529 73.2203 0.861582 73.6121C1.20344 73.8532 1.60562 73.9738 2.01283 73.9738C2.27424 73.9738 2.53566 73.9236 2.78702 73.8181L32.4529 61.4565C33.202 61.145 33.6896 60.4117 33.6896 59.603V45.6943L40.0541 42.4444L46.4186 45.6943V59.608C46.4186 60.4167 46.9063 61.1501 47.6553 61.4615L77.3212 73.8231C77.5726 73.9286 77.834 73.9788 78.0954 73.9788C78.5026 73.9788 78.9048 73.8583 79.2467 73.6172C79.8097 73.2254 80.1365 72.5724 80.1063 71.8842C80.0761 71.4573 79.6136 61.3761 75.6572 49.2506ZM29.6628 58.2669L4.30526 68.8302C5.36098 59.5879 10.0564 32.8203 29.6628 19.8559V43.7956L19.9602 48.7583C19.0955 49.2003 18.7536 50.2602 19.196 51.1241C19.5077 51.7319 20.1261 52.0835 20.7645 52.0835C21.036 52.0835 21.3075 52.0233 21.5638 51.8927L29.6678 47.7537V58.2669H29.6628ZM50.4304 58.2669V47.7487L58.5343 51.8876C58.7907 52.0182 59.0622 52.0785 59.3337 52.0785C59.9721 52.0785 60.5905 51.7269 60.9022 51.1191C61.3446 50.2552 61.0027 49.1953 60.138 48.7533L50.4354 43.7956V19.861C70.0417 32.8203 74.7372 59.5929 75.7929 68.8353L50.4304 58.2669Z" fill="white"/>
</svg>
